<?xml version="1.0" encoding="utf-8"?>
<!-- Generator: Adobe Illustrator 25.2.3, SVG Export Plug-In . SVG Version: 6.00 Build 0)  -->
<svg version="1.1" id="Calque_1" xmlns="http://www.w3.org/2000/svg" xmlns:xlink="http://www.w3.org/1999/xlink" x="0px" y="0px"
	 viewBox="0 0 221 221" style="enable-background:new 0 0 221 221;" xml:space="preserve">
<style type="text/css">
	.st0{fill:url(#SVGID_1_);}
	.st1{fill:#7ADEC9;}
</style>
<g>
	<linearGradient id="SVGID_1_" gradientUnits="userSpaceOnUse" x1="221" y1="110.5" x2="9.094947e-13" y2="110.5">
		<stop  offset="0" style="stop-color:#FFAA30"/>
		<stop  offset="7.625628e-02" style="stop-color:#FF9D26"/>
		<stop  offset="0.2352" style="stop-color:#FE8915"/>
		<stop  offset="0.4161" style="stop-color:#FE7B09"/>
		<stop  offset="0.6353" style="stop-color:#FE7302"/>
		<stop  offset="1" style="stop-color:#FE7000"/>
	</linearGradient>
	<path class="st0" d="M110.5,221C49.6,221,0,171.4,0,110.5S49.6,0,110.5,0S221,49.6,221,110.5S171.4,221,110.5,221z M110.5,13
		C56.7,13,13,56.7,13,110.5S56.7,208,110.5,208s97.5-43.7,97.5-97.5S164.3,13,110.5,13z"/>
	<polygon class="st1" points="111,111 111,44 98,44 98,111 98,120 98,124 158,124 158,111 	"/>
</g>
</svg>
